<?xml version="1.0" encoding="UTF-8"?>
<svg version="1.1" xmlns="http://www.w3.org/2000/svg" width="1024" height="1024">
<path d="M0 0 C337.92 0 675.84 0 1024 0 C1024 337.92 1024 675.84 1024 1024 C686.08 1024 348.16 1024 0 1024 C0 686.08 0 348.16 0 0 Z " fill="#FEFEFE" transform="translate(0,0)"/>
<path d="M0 0 C1.3443239 -0.00648218 2.68863876 -0.01513876 4.03293622 -0.0257743 C7.71686222 -0.04854969 11.40015526 -0.04021812 15.08410239 -0.02663505 C19.06106535 -0.01737299 23.03790334 -0.03687598 27.01483154 -0.0526123 C34.80216046 -0.07869473 42.58925846 -0.07761272 50.37661444 -0.06657412 C56.70696096 -0.05801343 63.03724071 -0.05884827 69.36758804 -0.06637001 C70.26880887 -0.0674249 71.1700297 -0.06847979 72.09856025 -0.06956664 C73.92943995 -0.07173759 75.76031963 -0.07392436 77.59119929 -0.07612679 C94.75874398 -0.09555574 111.92615918 -0.08356005 129.09369327 -0.06134085 C143.81785435 -0.04309467 158.54176461 -0.05398727 173.26589966 -0.08564758 C190.36920955 -0.12242166 207.47236281 -0.13942755 224.57571232 -0.12623531 C226.40044154 -0.12489423 228.22517079 -0.12358524 230.04990005 -0.12230873 C230.94766868 -0.12167807 231.8454373 -0.1210474 232.77041104 -0.12039762 C239.09068021 -0.11737206 245.41083111 -0.12862336 251.73107529 -0.14555931 C259.43717151 -0.16589786 267.14291393 -0.16499423 274.84899174 -0.13692691 C278.779386 -0.12316643 282.70916291 -0.11894302 286.639534 -0.14087677 C290.24106163 -0.16070953 293.84142993 -0.15260808 297.4428779 -0.12268243 C299.35560662 -0.11387332 301.26840186 -0.13440979 303.18102729 -0.156151 C310.95824607 -0.0544359 316.02733521 1.33823732 321.84255981 6.64164734 C327.55354099 12.93930292 327.49434789 19.03658168 327.21755981 27.26664734 C327.18541382 29.05691345 327.18541382 29.05691345 327.15261841 30.88334656 C327.07852395 34.47095231 326.96629188 38.05544574 326.84255981 41.64164734 C326.79905396 43.12664734 326.79905396 43.12664734 326.75466919 44.64164734 C326.40455581 56.23609979 325.54866625 67.77345314 324.57351685 79.3301239 C324.01586913 86.05720383 323.60943311 92.77208738 323.34255981 99.51664734 C322.98402231 108.53699555 322.35792547 117.51881908 321.6411438 126.51737976 C321.10592355 133.44493823 320.69232813 140.36523237 320.37380981 147.30570984 C320.33444809 148.13519638 320.29508636 148.96468292 320.25453186 149.81930542 C320.05964619 153.93030834 319.87712062 158.04115157 319.71585083 162.15361023 C319.64540507 163.67439006 319.5743861 165.19514347 319.50271606 166.71586609 C319.46984497 167.73935654 319.46984497 167.73935654 319.43630981 168.78352356 C319.13540609 174.66954485 317.78645949 180.21599862 314.04568481 184.88383484 C313.40115356 185.42266296 312.75662231 185.96149109 312.09255981 186.51664734 C311.45834106 187.07094421 310.82412231 187.62524109 310.17068481 188.19633484 C304.49518684 191.71971445 298.6365959 191.92854191 292.15335083 191.86869812 C291.31352158 191.86899017 290.47369232 191.86928223 289.6084137 191.86958313 C286.85432314 191.86819858 284.1005089 191.85267886 281.34646606 191.83695984 C279.42833097 191.8332266 277.51019396 191.83038109 275.59205627 191.8283844 C270.55984165 191.82077247 265.52774369 191.80114502 260.49557495 191.77897644 C255.35409116 191.75846534 250.21258841 191.74937144 245.07107544 191.73930359 C234.9948525 191.71789676 224.91871588 191.68379039 214.84255981 191.64164734 C214.74992071 177.90737532 214.67882546 164.17317751 214.63531113 150.43865681 C214.61442748 144.06130254 214.58609498 137.68416187 214.540802 131.30693054 C214.49737298 125.15370773 214.47342857 119.00069051 214.46305084 112.84732628 C214.45565426 110.49853974 214.44121067 108.14976458 214.41963959 105.80106544 C214.39064563 102.51370971 214.38660226 99.22720586 214.38845825 95.93974304 C214.37407715 94.96654114 214.35969604 93.99333923 214.34487915 92.99064636 C214.37846721 87.50056666 214.7977495 84.69774346 218.84255981 80.64164734 C219.61697169 77.22355354 219.51403297 74.07800995 218.84255981 70.64164734 C216.65233064 67.81740445 215.01238775 66.22656131 211.84255981 64.64164734 C206.09045654 64.12418184 206.09045654 64.12418184 200.96755981 66.39164734 C198.18814101 69.33456137 196.90154335 71.26929712 196.72537231 75.36820984 C196.84525513 76.8029364 196.84525513 76.8029364 196.96755981 78.26664734 C197.03201294 79.22828796 197.09646606 80.18992859 197.16287231 81.18070984 C197.38716919 81.99281921 197.61146606 82.80492859 197.84255981 83.64164734 C199.16255981 84.30164734 200.48255981 84.96164734 201.84255981 85.64164734 C201.84255981 120.62164734 201.84255981 155.60164734 201.84255981 191.64164734 C193.92255981 191.64164734 186.00255981 191.64164734 177.84255981 191.64164734 C177.84255981 147.42164734 177.84255981 103.20164734 177.84255981 57.64164734 C110.52255981 57.64164734 43.20255981 57.64164734 -26.15744019 57.64164734 C-26.15744019 13.64164734 -26.15744019 13.64164734 -20.15744019 5.64164734 C-13.97594139 -0.35201067 -8.35175061 -0.07041939 0 0 Z " fill="#3770FA" transform="translate(362.1574401855469,380.3583526611328)"/>
<path d="M0 0 C63.03 0 126.06 0 191 0 C191 39.6 191 79.2 191 120 C187.7 120 184.4 120 181 120 C180.54220797 128.04588648 180.54220797 128.04588648 183.7421875 135.0234375 C185.78444429 136.43730759 187.87116821 137.72184597 190 139 C193.63612975 142.97701692 193.45046918 147.18549964 193.27734375 152.3515625 C192.61371783 158.68872266 189.38327901 161.90344451 184.71875 165.80078125 C180.35375555 168.84635692 175.09371606 168.56508412 170 168 C165.12320478 165.60760989 162.19044396 162.28431045 159 158 C157.25723805 152.77171414 156.86044052 147.57485239 159.12890625 142.44921875 C162.20336506 137.54453381 164.7478537 135.51659781 170 133 C170.0929886 125.05442985 170.16390999 117.10908991 170.20724869 109.16310883 C170.2280571 105.47280045 170.25624919 101.78286642 170.30175781 98.09277344 C170.34545943 94.52657939 170.36918776 90.96074369 170.37950897 87.39430237 C170.39041494 85.38249888 170.42160191 83.37083804 170.45318604 81.35925293 C170.50108991 71.47268462 170.50108991 71.47268462 166 63 C158.76608928 56.93219834 150.50010323 57.28414399 141.56616211 57.34057617 C140.01804316 57.3321118 138.46993485 57.32146258 136.92184448 57.30880737 C132.74260874 57.28077651 128.56388828 57.28311199 124.38458705 57.29110122 C120.00831405 57.29423588 115.63220242 57.26916391 111.2559967 57.24714661 C102.97955548 57.20976031 94.70327855 57.19756183 86.42676121 57.1945222 C76.99980896 57.18982549 67.57302069 57.15688252 58.14614093 57.12162435 C38.76407224 57.04976186 19.38219991 57.01691263 0 57 C0 38.19 0 19.38 0 0 Z " fill="#2E69F8" transform="translate(336,452)"/>
<path d="M0 0 C51.81 0 103.62 0 157 0 C157 16.17 157 32.34 157 49 C138.88442247 49.09036934 120.76903793 49.16402206 102.65329742 49.20724869 C94.24143898 49.22785496 85.82973076 49.25593839 77.41796875 49.30175781 C70.08441868 49.34168503 62.75097743 49.36744688 55.41732168 49.37635398 C51.53583393 49.38155882 47.65465744 49.39375127 43.77326965 49.42292023 C40.11575233 49.45018264 36.45867283 49.45842339 32.80106354 49.45243073 C30.8273 49.45404628 28.85358355 49.47551226 26.87994385 49.49768066 C18.83539336 49.46047712 13.37011021 48.60598485 7.01171875 43.359375 C6.57472656 42.82828125 6.13773437 42.2971875 5.6875 41.75 C5.23761719 41.22921875 4.78773438 40.7084375 4.32421875 40.171875 C-3.62013769 27.14219305 0 16.69975698 0 0 Z " fill="#2A67F9" transform="translate(336,523)"/>
<path d="M0 0 C1.12437469 -0.00671722 2.24874939 -0.01343445 3.40719604 -0.02035522 C7.12022334 -0.03933499 10.8330698 -0.04325973 14.54614258 -0.04541016 C17.13438491 -0.05183906 19.7226265 -0.05856749 22.31086731 -0.06558228 C27.7370503 -0.07755571 33.16316189 -0.08134892 38.58935547 -0.08007812 C44.83781607 -0.07887881 51.08593008 -0.09994349 57.33430308 -0.13156545 C63.36885718 -0.16100405 69.40322509 -0.16805051 75.43786049 -0.16685867 C77.99379196 -0.16921136 80.54972629 -0.17801604 83.1056118 -0.19352341 C86.69048726 -0.21323394 90.27448379 -0.20732405 93.859375 -0.1953125 C94.9044371 -0.20655151 95.94949921 -0.21779053 97.02622986 -0.22937012 C112.72516843 -0.09646348 122.06164773 7.34712426 132.67700195 18.03857422 C133.58901367 18.96734375 134.50102539 19.89611328 135.44067383 20.85302734 C136.82609375 22.25198242 136.82609375 22.25198242 138.23950195 23.67919922 C139.95693427 25.41394187 141.67228866 27.15074628 143.38476562 28.89038086 C144.16634033 29.6824292 144.94791504 30.47447754 145.75317383 31.29052734 C146.51218994 32.13349365 147.27120605 32.97645996 148.05322266 33.8449707 C155.50487281 40.59451222 162.21399054 40.85609092 171.87939453 40.74121094 C173.87531073 40.74228535 175.87122694 40.74336464 177.86714303 40.74462724 C179.9996118 40.74223493 182.13182944 40.7300874 184.26424599 40.71525192 C188.72486584 40.68520183 193.18510554 40.68796545 197.64579773 40.69595337 C208.72502536 40.71100934 219.80414361 40.68938783 230.88330078 40.64813232 C239.49703588 40.61611101 248.11032581 40.59701006 256.72411412 40.61964476 C261.1488438 40.62984287 265.57232946 40.61276013 269.99689257 40.57450461 C273.4109586 40.55269445 276.8246563 40.57005892 280.23876953 40.58105469 C281.44900284 40.56254959 282.65923615 40.54404449 283.90614319 40.52497864 C294.27584577 40.62400524 301.47848657 44.14118824 309.12817383 51.04052734 C315.60120185 57.9388878 318.93030201 65.90273353 318.75317383 75.29052734 C310.28595998 74.09839254 303.00477957 68.24571212 297.58129883 61.86865234 C291.09478399 56.26918227 283.67592799 56.88217292 275.55688477 56.95336914 C273.53122819 56.95251888 271.5055716 56.95166209 269.47991514 56.95056021 C267.31237042 56.95210206 265.14495791 56.96087903 262.97743988 56.97153282 C258.44551594 56.99275893 253.91384735 56.98788023 249.38189697 56.97846985 C236.49826667 56.95565322 223.61479032 56.96744463 210.73120117 57.00561523 C203.60768251 57.02648998 196.48448286 57.02567652 189.36096978 57.00208026 C184.86520861 56.98847571 180.3705857 57.00141757 175.87493944 57.03467786 C173.06521597 57.04912591 170.2559906 57.0382944 167.44630241 57.02069473 C165.54355598 57.01605569 163.6408074 57.04100152 161.73823547 57.06718445 C151.27731283 56.95580559 143.35275518 53.3254236 135.75317383 46.10302734 C134.53500977 44.96220703 134.53500977 44.96220703 133.29223633 43.79833984 C131.49149481 42.0197613 129.71881759 40.23032957 127.96411133 38.40771484 C121.45634554 31.66716913 115.36827788 25.74998885 105.52859688 25.15630627 C104.71415045 25.15203279 103.89970402 25.1477593 103.06057739 25.14335632 C101.65175797 25.13262337 101.65175797 25.13262337 100.21447754 25.12167358 C99.1910022 25.11898468 98.16752686 25.11629578 97.11303711 25.11352539 C96.02969086 25.10695419 94.9463446 25.100383 93.83016968 25.09361267 C90.24460786 25.0738989 86.65908783 25.0622229 83.07348633 25.05224609 C81.84899654 25.04817057 80.62450676 25.04409504 79.36291122 25.03989601 C72.88509032 25.01904609 66.40729055 25.0047382 59.92944336 24.99536133 C54.5654058 24.98729244 49.20159156 24.96614328 43.83764648 24.93383789 C37.36208125 24.89545772 30.88674285 24.87660239 24.41106796 24.87207985 C21.94310131 24.86720468 19.47513844 24.8555644 17.00723648 24.83704185 C13.55525524 24.81273841 10.10413991 24.81359953 6.65209961 24.82055664 C5.63267273 24.80774658 4.61324585 24.79493652 3.56292725 24.78173828 C-3.93735035 24.83685858 -7.16011895 26.35847436 -12.61010742 31.53540039 C-14.77964952 35.18744136 -14.63722579 38.26869497 -14.43432617 42.37255859 C-14.40983317 43.9604146 -14.38777431 45.54830968 -14.36791992 47.13623047 C-14.31642366 49.62006701 -14.24701094 52.09896849 -14.1340332 54.58081055 C-13.55757307 68.44205657 -13.55757307 68.44205657 -17.91479492 73.20996094 C-25.4064207 78.29052734 -25.4064207 78.29052734 -29.24682617 78.29052734 C-29.33982353 70.47537547 -29.4107409 62.66035511 -29.45407486 54.8447876 C-29.47488133 51.21501004 -29.50306971 47.58561319 -29.54858398 43.95605469 C-29.59229277 40.44821472 -29.61601539 36.94073915 -29.62633514 33.43264771 C-29.63723871 31.45408091 -29.66842452 29.47565913 -29.70001221 27.49731445 C-29.70208228 19.13365118 -28.91624477 13.55418377 -23.31713867 7.04833984 C-22.67518555 6.50951172 -22.03323242 5.97068359 -21.37182617 5.41552734 C-20.7350293 4.86123047 -20.09823242 4.30693359 -19.44213867 3.73583984 C-13.34423015 -0.27879744 -7.03571499 -0.00604348 0 0 Z " fill="#2C68F9" transform="translate(365.246826171875,295.70947265625)"/>
<path d="M0 0 C0.93487747 -0.00708481 1.86975494 -0.01416962 2.83296204 -0.02146912 C3.85172424 -0.0189917 4.87048645 -0.01651428 5.92012024 -0.01396179 C7.5379113 -0.02162819 7.5379113 -0.02162819 9.18838501 -0.02944946 C12.7595828 -0.04336688 16.33058797 -0.04238652 19.90180969 -0.04008484 C22.3856005 -0.04397164 24.86939065 -0.04830628 27.35317993 -0.05307007 C32.56431734 -0.06053769 37.77538701 -0.06023782 42.98652649 -0.05497742 C49.65336765 -0.0482871 56.31988673 -0.06608529 62.9866972 -0.08932209 C68.1195029 -0.104083 73.25224191 -0.1049277 78.38506508 -0.10181236 C80.84216169 -0.10232476 83.29926212 -0.10754717 85.75633812 -0.11762428 C89.20043676 -0.13001152 92.64399843 -0.12318187 96.08808899 -0.11161804 C97.09673004 -0.11926178 98.10537109 -0.12690552 99.14457703 -0.13478088 C107.58394843 -0.07240169 114.95948908 1.21755155 121.20259094 7.26069641 C122.03532532 8.05089172 122.86805969 8.84108704 123.72602844 9.65522766 C125.51773147 11.44962093 127.29292288 13.26060328 129.05415344 15.08491516 C134.72028974 20.93460235 140.06074399 25.54307596 147.32759094 29.26069641 C148.21126406 29.78259772 148.21126406 29.78259772 149.11278915 30.3150425 C151.86372552 31.48960979 153.96584964 31.5112459 156.95582581 31.51225281 C158.10250229 31.51763565 159.24917877 31.52301849 160.43060303 31.52856445 C161.68470474 31.52444046 162.93880646 31.52031647 164.23091125 31.5160675 C165.56825982 31.51881831 166.90560675 31.52249876 168.24295044 31.52703857 C171.12126625 31.53514585 173.99950439 31.53732019 176.87783051 31.5350914 C181.43388193 31.53225562 185.98977861 31.54662112 190.54579163 31.56407166 C203.50086638 31.61107021 216.45593081 31.63503083 229.41108704 31.64155579 C236.56749118 31.64531229 243.72372032 31.66339017 250.88004947 31.69665015 C255.40396502 31.71681716 259.92742776 31.71925747 264.45136976 31.70836997 C267.27399112 31.70575313 270.09635177 31.7198143 272.91890526 31.738451 C274.84008386 31.74626533 276.76131143 31.73437194 278.6824646 31.72177124 C285.23392043 31.78413404 291.05122565 32.00745497 296.32759094 36.26069641 C297.69803554 37.89698402 299.03835059 39.55969234 300.32759094 41.26069641 C299.36091751 41.26159204 299.36091751 41.26159204 298.37471533 41.26250577 C260.1792043 41.29839991 221.98377639 41.35503915 183.78833887 41.43861736 C179.20213936 41.44863482 174.61593949 41.45847895 170.02973938 41.46821594 C169.11670974 41.47015732 168.20368011 41.47209869 167.2629829 41.47409889 C152.47944505 41.50511977 137.69592273 41.52209979 122.91235846 41.53389063 C107.74298907 41.54630173 92.57370115 41.57380222 77.40438318 41.61530948 C68.04412775 41.64044604 58.68400744 41.65381357 49.32371777 41.65212598 C42.90496338 41.65209623 36.48634661 41.66672377 30.06764585 41.69286069 C26.36438143 41.70750804 22.66139926 41.71570853 18.95811081 41.7064991 C14.94066211 41.69667754 10.92395935 41.71772897 6.90657043 41.74171448 C5.15557926 41.73007385 5.15557926 41.73007385 3.36921453 41.71819806 C-3.48634613 41.79074031 -7.76135962 42.7773138 -13.67240906 46.26069641 C-14.33240906 46.26069641 -14.99240906 46.26069641 -15.67240906 46.26069641 C-15.84650494 41.28040626 -15.97295909 36.3019164 -16.05693054 31.31929016 C-16.09195948 29.62756978 -16.1396005 27.93605867 -16.20048523 26.24507141 C-16.75699413 10.38222961 -16.75699413 10.38222961 -12.39506531 5.22944641 C-8.60032665 1.73210426 -5.1845836 0.01313093 0 0 Z " fill="#C9DCFD" transform="translate(365.6724090576172,319.7393035888672)"/>
<path d="M0 0 C1.79244141 0.01740234 1.79244141 0.01740234 3.62109375 0.03515625 C5.41740234 0.04869141 5.41740234 0.04869141 7.25 0.0625 C8.17683594 0.07410156 9.10367188 0.08570313 10.05859375 0.09765625 C14.59057989 8.93935129 18.92259684 17.84693516 22.99609375 26.91015625 C23.38531006 27.77543945 23.77452637 28.64072266 24.17553711 29.53222656 C25.59130933 32.70441267 26.95926666 35.79967499 28.05859375 39.09765625 C34.71665604 26.39507324 40.35084727 13.24714814 46.05859375 0.09765625 C51.00859375 0.09765625 55.95859375 0.09765625 61.05859375 0.09765625 C61.05859375 20.55765625 61.05859375 41.01765625 61.05859375 62.09765625 C57.09859375 62.09765625 53.13859375 62.09765625 49.05859375 62.09765625 C48.72859375 49.22765625 48.39859375 36.35765625 48.05859375 23.09765625 C43.86911686 32.78998977 43.86911686 32.78998977 39.68212891 42.48339844 C39.15925293 43.69157227 38.63637695 44.89974609 38.09765625 46.14453125 C37.82719482 46.77182129 37.5567334 47.39911133 37.27807617 48.04541016 C35.94873755 51.11348958 34.55516173 54.1045203 33.05859375 57.09765625 C30.08859375 57.09765625 27.11859375 57.09765625 24.05859375 57.09765625 C23.46691406 55.78152344 22.87523437 54.46539063 22.265625 53.109375 C21.88470703 52.26246094 21.50378906 51.41554688 21.11132812 50.54296875 C20.28282496 48.70069085 19.45470146 46.85824217 18.62695312 45.015625 C16.02598287 39.22867537 16.02598287 39.22867537 13.3828125 33.4609375 C12.94582031 32.51605469 12.50882813 31.57117188 12.05859375 30.59765625 C11.68734375 29.80359375 11.31609375 29.00953125 10.93359375 28.19140625 C10.05859375 26.09765625 10.05859375 26.09765625 9.05859375 22.09765625 C8.72859375 35.29765625 8.39859375 48.49765625 8.05859375 62.09765625 C4.09859375 62.09765625 0.13859375 62.09765625 -3.94140625 62.09765625 C-3.96396098 54.16151415 -3.98232348 46.22539679 -3.99321842 38.2892313 C-3.99844633 34.60451127 -4.0055423 30.91981422 -4.0168457 27.23510742 C-4.02767787 23.68194794 -4.03368378 20.12881062 -4.03628349 16.57563591 C-4.03813715 15.21719959 -4.04175663 13.85876454 -4.04713631 12.5003376 C-4.054351 10.60383402 -4.05481434 8.70730832 -4.05493164 6.81079102 C-4.05715225 5.72935318 -4.05937286 4.64791534 -4.06166077 3.53370667 C-3.88509791 -0.04300735 -3.63340695 0.12063104 0 0 Z " fill="#192849" transform="translate(504.94140625,676.90234375)"/>
<path d="M0 0 C1.03769531 -0.02578125 2.07539062 -0.0515625 3.14453125 -0.078125 C6.86208551 0.32274093 9.52489993 1.58739993 12.1875 4.25 C12.5175 2.93 12.8475 1.61 13.1875 0.25 C17.1475 0.25 21.1075 0.25 25.1875 0.25 C25.28696345 6.61795586 25.35924892 12.98545162 25.40722656 19.35400391 C25.4272439 21.51684454 25.4544663 23.67963173 25.48925781 25.84228516 C25.53821247 28.96530406 25.56056817 32.0876026 25.578125 35.2109375 C25.59877014 36.16551849 25.61941528 37.12009949 25.64068604 38.10360718 C25.64286397 44.73708236 24.51410481 50.43484509 21.1875 56.25 C16.0019313 61.32970202 10.1042779 63.53842182 2.875 63.625 C-4.77035203 63.49541776 -9.03335641 61.56595299 -14.8125 56.75 C-16.8125 54.25 -16.8125 54.25 -16.8125 50.25 C-15.23689993 49.80498319 -13.65139511 49.39492769 -12.0625 49 C-10.73992188 48.65195312 -10.73992188 48.65195312 -9.390625 48.296875 C-8.53984375 48.28140625 -7.6890625 48.2659375 -6.8125 48.25 C-5.86890625 49.2090625 -5.86890625 49.2090625 -4.90625 50.1875 C-2.91197836 52.5723153 -2.91197836 52.5723153 0.421875 52.640625 C1.58203125 52.59421875 2.7421875 52.5478125 3.9375 52.5 C5.10796875 52.46390625 6.2784375 52.4278125 7.484375 52.390625 C8.37640625 52.34421875 9.2684375 52.2978125 10.1875 52.25 C12.03420417 48.04038695 12.36835487 44.86179928 12.1875 40.25 C11.445 40.91 10.7025 41.57 9.9375 42.25 C5.15735954 45.42919081 -0.31535257 44.9731147 -5.8125 44.25 C-11.18686186 42.54476576 -14.16993767 39.14363394 -16.8125 34.25 C-19.46292878 27.39907218 -20.09728447 19.99677856 -18.16015625 12.83984375 C-14.66967368 5.06490617 -8.4696505 0.12532159 0 0 Z " fill="#182748" transform="translate(737.8125,692.75)"/>
<path d="M0 0 C3.63 0 7.26 0 11 0 C11 1.98 11 3.96 11 6 C11.66 6 12.32 6 13 6 C13.37125 5.071875 13.37125 5.071875 13.75 4.125 C15.27813945 1.52716294 16.21365762 1.08410591 19 0 C24.54032503 -0.66360439 29.43254144 -0.75573895 34.5 1.6875 C39.63716412 6.43937681 43.52317233 11.42379251 44.46875 18.515625 C44.53729841 26.70716058 44.1689358 33.37189093 39 40 C33.80887414 44.92853973 29.53923189 47.00073633 22.328125 47.42578125 C20 47 20 47 13 43 C12.67 49.27 12.34 55.54 12 62 C8.04 62 4.08 62 0 62 C0 41.54 0 21.08 0 0 Z " fill="#152545" transform="translate(397,693)"/>
<path d="M0 0 C1.26457031 -0.04253906 1.26457031 -0.04253906 2.5546875 -0.0859375 C5.125 0.375 5.125 0.375 7.22233582 2.36968994 C11.23512344 5.14193051 14.36871942 4.94938135 19.13793945 4.92089844 C20.03599808 4.93123611 20.9340567 4.94157379 21.85932922 4.95222473 C24.81916289 4.98165436 27.77831277 4.98315195 30.73828125 4.984375 C32.79381108 4.99935652 34.84932887 5.01608361 36.90483093 5.03448486 C42.30856885 5.07817359 47.71214439 5.09816095 53.11602783 5.11322021 C58.63278817 5.13278571 64.14937299 5.1747564 69.66601562 5.21484375 C80.48562297 5.29016245 91.30519106 5.34044397 102.125 5.375 C102.455 4.385 102.785 3.395 103.125 2.375 C107.15463628 -0.31142419 110.38956339 -0.42501403 115.125 0.375 C118.28564538 2.04867508 120.39008731 4.41641823 122.5625 7.25 C123.4573238 10.63044546 122.99708578 13.00293497 122.125 16.375 C120.26645335 19.28628986 118.26655926 21.80422037 115.125 23.375 C109.48068761 23.83764856 109.48068761 23.83764856 107.125 23.375 C106.43954102 22.71689331 105.75408203 22.05878662 105.04785156 21.3807373 C101.03292708 18.62559096 97.95202377 18.81122739 93.19140625 18.85742188 C92.30137909 18.8504126 91.41135193 18.84340332 90.49435425 18.83618164 C87.55841685 18.81860629 84.62344685 18.83022282 81.6875 18.84375 C79.64395971 18.84105496 77.60042067 18.83717243 75.55688477 18.83215332 C71.27640561 18.82625889 66.9962606 18.83481961 62.71582031 18.85351562 C57.23111881 18.87630496 51.74720025 18.86318161 46.26252747 18.83922577 C42.04343779 18.82476642 37.82453351 18.82937445 33.60543823 18.83973694 C31.58324084 18.84240384 29.56102657 18.83913578 27.53884888 18.82981873 C24.71164412 18.81965103 21.88570437 18.83515738 19.05859375 18.85742188 C18.22415741 18.84932495 17.38972107 18.84122803 16.52999878 18.83288574 C11.39501296 18.90774074 8.96136996 19.68415838 5.125 23.375 C1.38931488 24.31704234 -2.28479287 24.22737798 -5.71875 22.38671875 C-9.74670713 19.19791935 -11.59736319 16.50354886 -12.25 11.5 C-11.77361498 7.53012486 -10.34459574 5.47963464 -7.875 2.375 C-4.70243365 0.25995576 -3.6732575 0.05582458 0 0 Z " fill="#F8FAFD" transform="translate(366.875,469.625)"/>
<path d="M0 0 C34.51724138 0 34.51724138 0 43 8 C47.0231562 13.32094852 46.75485361 19.60890608 46 26 C44.40080844 31.31344293 41.81001233 35.1139926 37 38 C29.0436236 42.08427322 20.69881928 41.21929797 12 41 C12 47.93 12 54.86 12 62 C8.04 62 4.08 62 0 62 C0 41.54 0 21.08 0 0 Z " fill="#172646" transform="translate(183,677)"/>
<path d="M0 0 C3.63 0 7.26 0 11 0 C11.33 1.65 11.66 3.3 12 5 C12.763125 4.175 13.52625 3.35 14.3125 2.5 C18.08760481 -0.64741518 21.59089256 -0.65093277 26.3671875 -0.4296875 C30.24506593 0.20320067 32.11652161 1.34416464 35 4 C35.495 5.485 35.495 5.485 36 7 C36.52207031 6.4946875 37.04414063 5.989375 37.58203125 5.46875 C41.85023025 1.70137295 44.93512561 -0.51454106 50.75 -0.625 C56.46896193 -0.21821191 59.35895452 1.22220073 63.25 5.4375 C66.38440257 10.02716091 66.13636329 14.40551365 66.09765625 19.828125 C66.0962413 20.57713074 66.09482635 21.32613647 66.09336853 22.09783936 C66.08778659 24.48193412 66.07523745 26.86593378 66.0625 29.25 C66.05748266 30.86979031 66.05292016 32.48958209 66.04882812 34.109375 C66.03782308 38.07295312 66.02057091 42.03646045 66 46 C62.04 46 58.08 46 54 46 C53.98541748 45.04633545 53.97083496 44.0926709 53.95581055 43.11010742 C53.89782208 39.57066415 53.82059042 36.03185676 53.73754883 32.49291992 C53.70430182 30.96144941 53.67626907 29.42985644 53.65356445 27.89819336 C53.62001282 25.69592113 53.5677009 23.49477088 53.51171875 21.29296875 C53.50532883 20.60849167 53.4989389 19.92401459 53.49235535 19.21879578 C53.40456799 16.37844703 53.30434356 14.43527246 51.65161133 12.0715332 C49.00148141 10.35218062 47.07183231 10.56116681 44 11 C40.91322248 13.26363685 40.08548998 14.48323677 39.45410156 18.29980469 C39.4331543 19.57758789 39.41220703 20.85537109 39.390625 22.171875 C39.37408875 22.8542926 39.35755249 23.53671021 39.34051514 24.23980713 C39.29210161 26.40996354 39.27068135 28.57941972 39.25 30.75 C39.22183438 32.22529552 39.19190611 33.70055851 39.16015625 35.17578125 C39.08634775 38.78370198 39.03673106 42.39148972 39 46 C35.04 46 31.08 46 27 46 C26.98541748 45.04633545 26.97083496 44.0926709 26.95581055 43.11010742 C26.89782208 39.57066415 26.82059042 36.03185676 26.73754883 32.49291992 C26.70430182 30.96144941 26.67626907 29.42985644 26.65356445 27.89819336 C26.62001282 25.69592113 26.5677009 23.49477088 26.51171875 21.29296875 C26.50532883 20.60849167 26.4989389 19.92401459 26.49235535 19.21879578 C26.40520977 16.39921195 26.29906697 14.43698701 24.68286133 12.07543945 C21.73460247 10.19134251 19.37478159 10.52634644 16 11 C13.21016796 13.68725551 12.10356129 15.38729326 11.45410156 19.22973633 C11.4331543 20.41849365 11.41220703 21.60725098 11.390625 22.83203125 C11.35839844 24.12431641 11.32617188 25.41660156 11.29296875 26.74804688 C11.2782265 28.10286009 11.26390888 29.45767798 11.25 30.8125 C11.22182241 32.18688639 11.19189246 33.56123805 11.16015625 34.93554688 C11.08952726 38.2904241 11.03679226 41.64460896 11 45 C7.37 45 3.74 45 0 45 C0 30.15 0 15.3 0 0 Z " fill="#152445" transform="translate(321,693)"/>
<path d="M0 0 C6.09745659 3.70296184 9.63729856 8.6019757 11.5 15.4375 C12.38825611 22.88950124 12.13176368 29.16921532 8 35.56640625 C3.97861293 40.58266773 -1.01891922 44.61012799 -7.5 45.4375 C-13.86590302 46.09604169 -18.39026441 45.7825838 -23.6796875 41.9921875 C-29.5829172 36.95037329 -32.9902022 32.21537242 -33.8359375 24.2890625 C-33.93520503 16.08956438 -33.37987399 10.44227939 -27.55859375 4.43359375 C-20.08128803 -2.38273467 -9.58559819 -4.35539801 0 0 Z " fill="#152545" transform="translate(301.5,694.5625)"/>
<path d="M0 0 C4.19620924 3.00964071 6.25864807 6.09079882 8.2734375 10.87109375 C8.52057395 13.63016403 8.62610396 16.146573 8.56640625 18.89453125 C8.56216141 19.64070709 8.55791656 20.38688293 8.55354309 21.15567017 C8.53686132 23.51952473 8.49923089 25.88250051 8.4609375 28.24609375 C8.44587699 29.85675845 8.43219098 31.46743662 8.41992188 33.078125 C8.38699254 37.0094489 8.33528512 40.94012276 8.2734375 44.87109375 C4.3134375 44.87109375 0.3534375 44.87109375 -3.7265625 44.87109375 C-3.7265625 43.55109375 -3.7265625 42.23109375 -3.7265625 40.87109375 C-4.54447266 41.4125 -4.54447266 41.4125 -5.37890625 41.96484375 C-10.90180019 45.36354771 -15.23013789 47.01304339 -21.7265625 45.87109375 C-26.03444934 44.10877641 -29.53790994 41.0151818 -31.7265625 36.87109375 C-32.70156915 32.18097554 -32.1726923 28.79767103 -30.1015625 24.49609375 C-26.63170814 20.66099156 -22.75499644 18.82476226 -17.7265625 17.87109375 C-15.3107719 17.80277388 -12.89321537 17.78621733 -10.4765625 17.80859375 C-8.58164062 17.82212891 -8.58164062 17.82212891 -6.6484375 17.8359375 C-5.68421875 17.84753906 -4.72 17.85914063 -3.7265625 17.87109375 C-4.82442675 12.4632199 -4.82442675 12.4632199 -8.7265625 8.87109375 C-12.14194394 8.28739932 -12.14194394 8.28739932 -15.7265625 8.87109375 C-18.66629531 11.22527751 -18.66629531 11.22527751 -20.7265625 13.87109375 C-27.4765625 12.12109375 -27.4765625 12.12109375 -29.7265625 9.87109375 C-29.50745416 7.2991792 -28.94812601 6.11367739 -27.203125 4.203125 C-26.59210937 3.70167969 -25.98109375 3.20023438 -25.3515625 2.68359375 C-24.74570312 2.17441406 -24.13984375 1.66523437 -23.515625 1.140625 C-17.81551961 -2.90420961 -6.26762884 -2.59504976 0 0 Z " fill="#172747" transform="translate(703.7265625,694.12890625)"/>
<path d="M0 0 C3.61400234 2.71050175 6.45740163 5.78980327 8.5 9.875 C8.58667255 12.50127133 8.61560135 15.10062483 8.59765625 17.7265625 C8.5962413 18.50059418 8.59482635 19.27462585 8.59336853 20.07211304 C8.58776403 22.54811442 8.57521083 25.02402588 8.5625 27.5 C8.55748558 29.17708203 8.55292257 30.85416547 8.54882812 32.53125 C8.53779315 36.64586806 8.52052554 40.76041878 8.5 44.875 C4.87 44.875 1.24 44.875 -2.5 44.875 C-2.995 42.4 -2.995 42.4 -3.5 39.875 C-4.428125 40.679375 -5.35625 41.48375 -6.3125 42.3125 C-10.34207297 45.80479657 -14.0274069 46.2281913 -19.21875 46.15234375 C-24.11774164 45.55674716 -26.77653217 42.71269959 -29.875 39.125 C-31.82075487 35.23349026 -32.55805327 32.09093534 -31.5 27.875 C-28.89990321 23.11131902 -25.15710642 19.94876065 -20 18.296875 C-14.54978007 17.37715039 -9.00405628 17.66627876 -3.5 17.875 C-4.62697043 12.90588634 -4.62697043 12.90588634 -7.5 8.875 C-12.09695215 8.24404578 -14.7333182 8.71732485 -18.4375 11.375 C-19.448125 12.2 -20.45875 13.025 -21.5 13.875 C-24.14 12.555 -26.78 11.235 -29.5 9.875 C-28.3503405 5.27636201 -26.41818944 3.28998468 -22.5 0.875 C-15.3382397 -2.01167884 -7.3650967 -2.36735251 0 0 Z " fill="#172646" transform="translate(605.5,694.125)"/>
<path d="M0 0 C1.19367187 -0.01675781 2.38734375 -0.03351562 3.6171875 -0.05078125 C9.47586193 0.55596343 13.19412296 2.85086777 16.9375 7.3125 C17.81341797 8.3334375 17.81341797 8.3334375 18.70703125 9.375 C22.67956562 14.80303595 21.125 18.80450199 21.125 26.3125 C10.895 26.3125 0.665 26.3125 -9.875 26.3125 C-7.84884121 34.08527038 -7.84884121 34.08527038 -3.875 36.3125 C-1.72709071 36.62850189 -1.72709071 36.62850189 0.5625 36.5625 C1.32433594 36.56765625 2.08617187 36.5728125 2.87109375 36.578125 C5.40789809 36.27916019 6.97430201 35.68237133 9.125 34.3125 C9.785 33.3225 10.445 32.3325 11.125 31.3125 C14.52812738 32.37125074 17.13853231 33.32152154 20.125 35.3125 C19.88373283 38.56960685 18.92230672 39.51519328 16.5625 41.875 C10.7993694 46.31028341 4.81927303 47.92971949 -2.42578125 47.65234375 C-9.49226218 46.67182726 -14.07969763 42.81506786 -18.46484375 37.37109375 C-22.70326296 31.18370614 -22.6363744 23.55037561 -21.875 16.3125 C-19.91721307 9.29025827 -15.06422859 4.99250868 -9.0859375 1.16796875 C-6.00694708 -0.02337207 -3.29296105 0.01062246 0 0 Z " fill="#182747" transform="translate(791.875,692.6875)"/>
<path d="M0 0 C2.77114353 1.29320032 4.47965802 2.30621069 6.3125 4.75 C7.31199111 8.0210618 7.3581657 10.59742588 7 14 C6.01592163 15.06166382 6.01592163 15.06166382 5.01196289 16.14477539 C2.18142385 20.16166097 2.40563471 23.44222049 2.43359375 28.24609375 C2.42739517 29.13482681 2.42119659 30.02355988 2.41481018 30.93922424 C2.40772259 32.8143708 2.41086751 34.68958043 2.42358398 36.56469727 C2.4374403 39.42517617 2.40337697 42.28237578 2.36523438 45.14257812 C2.364283 46.9687508 2.366143 48.79492754 2.37109375 50.62109375 C2.35783554 51.47126572 2.34457733 52.32143768 2.33091736 53.19737244 C2.42568286 59.27854589 3.85232622 61.61176358 8 66 C8.54200349 69.86177489 8.38630645 72.1257275 6.8125 75.6875 C3.55431184 79.84449868 1.45723835 81.76496156 -3.875 82.625 C-8.22956581 82.4266896 -10.56523458 80.41911819 -13.65234375 77.5078125 C-15.92133728 74.96917047 -16.22963686 73.01407952 -16.375 69.6875 C-16.42398438 68.92824219 -16.47296875 68.16898437 -16.5234375 67.38671875 C-16 65 -16 65 -13.5065918 62.92871094 C-10.04237733 58.88111021 -10.29073455 55.91914402 -10.37109375 50.75390625 C-10.36868179 49.86517319 -10.36626984 48.97644012 -10.36378479 48.06077576 C-10.36476206 46.1855726 -10.37812718 44.31034017 -10.40307617 42.43530273 C-10.43735016 39.57500454 -10.42373852 36.71780394 -10.40429688 33.85742188 C-10.41119691 32.03123692 -10.42087071 30.20505992 -10.43359375 28.37890625 C-10.42863388 27.52873428 -10.42367401 26.67856232 -10.41856384 25.80262756 C-10.52638462 20.32687465 -11.58669904 17.46419103 -15 13 C-15.50535514 9.46251404 -15.25444674 7.57585314 -13.8125 4.3125 C-9.71526436 -0.91500754 -6.38075354 -1.59518839 0 0 Z " fill="#F9FCFD" transform="translate(618,428)"/>
<path d="M0 0 C3.63 0 7.26 0 11 0 C11.33 1.65 11.66 3.3 12 5 C12.78375 4.360625 13.5675 3.72125 14.375 3.0625 C19.53297487 -0.99019454 24.61377949 -0.60105605 31 0 C35.58836415 2.17343565 37.84178624 4.45251438 40 9 C40.2521484 11.8669002 40.35108656 14.50447089 40.29296875 17.36328125 C40.28872391 18.15526413 40.28447906 18.94724701 40.28010559 19.76322937 C40.26338163 22.28000627 40.22574225 24.79596724 40.1875 27.3125 C40.17244499 29.02407693 40.15875801 30.73566649 40.14648438 32.44726562 C40.11349885 36.63182233 40.06176098 40.81577307 40 45 C36.37 45 32.74 45 29 45 C28.9906543 44.1121582 28.98130859 43.22431641 28.97167969 42.30957031 C28.92759319 39.00654081 28.86595254 35.70479993 28.79248047 32.40234375 C28.76430389 30.97473063 28.74307273 29.54696247 28.72900391 28.11914062 C28.70752608 26.06299668 28.66086026 24.00870998 28.609375 21.953125 C28.58842773 20.71723633 28.56748047 19.48134766 28.54589844 18.20800781 C27.90568364 14.44574375 27.04981744 13.23307278 24 11 C20.15817613 10.45116802 18.01078113 10.26624442 14.81933594 12.58300781 C12.35177615 15.86116695 12.45747376 18.09410093 12.390625 22.171875 C12.37408875 22.8542926 12.35755249 23.53671021 12.34051514 24.23980713 C12.29210161 26.40996354 12.27068135 28.57941972 12.25 30.75 C12.22183438 32.22529552 12.19190611 33.70055851 12.16015625 35.17578125 C12.08634775 38.78370198 12.03673106 42.39148972 12 46 C8.04 46 4.08 46 0 46 C0 30.82 0 15.64 0 0 Z " fill="#162446" transform="translate(624,693)"/>
<path d="M0 0 C3.63 0 7.26 0 11 0 C11 3.96 11 7.92 11 12 C14.63 12 18.26 12 22 12 C22 14.97 22 17.94 22 21 C18.37 21 14.74 21 11 21 C11.1134549 24.95897882 11.2402125 28.91674032 11.375 32.875 C11.4059375 34.00292969 11.436875 35.13085938 11.46875 36.29296875 C11.50742187 37.36933594 11.54609375 38.44570313 11.5859375 39.5546875 C11.63306885 41.04718018 11.63306885 41.04718018 11.68115234 42.56982422 C11.77247083 45.17854517 11.77247083 45.17854517 14 47 C16.32275177 47.40047444 18.65739357 47.7397104 21 48 C21 50.97 21 53.94 21 57 C18.77191841 57.10853983 16.54230068 57.18583307 14.3125 57.25 C13.07113281 57.29640625 11.82976562 57.3428125 10.55078125 57.390625 C6.36478488 56.93011935 4.86694119 56.03740797 2 53 C0.048776 49.10221695 -0.23636009 45.93598938 -0.1953125 41.60546875 C-0.18886719 40.40341797 -0.18242187 39.20136719 -0.17578125 37.96289062 C-0.15902344 36.71701172 -0.14226562 35.47113281 -0.125 34.1875 C-0.11597656 32.92228516 -0.10695313 31.65707031 -0.09765625 30.35351562 C-0.07412394 27.23548436 -0.04124545 24.11783903 0 21 C-2.31 21 -4.62 21 -7 21 C-7 18.03 -7 15.06 -7 12 C-4.69 12 -2.38 12 0 12 C0 8.04 0 4.08 0 0 Z " fill="#142345" transform="translate(451,682)"/>
<path d="M0 0 C3.96 0 7.92 0 12 0 C12.33 1.98 12.66 3.96 13 6 C13.4125 5.566875 13.825 5.13375 14.25 4.6875 C17.54172757 1.51333413 19.72483755 -0.42540281 24.4375 -0.375 C25.613125 -0.25125 26.78875 -0.1275 28 0 C28 3.63 28 7.26 28 11 C26.453125 11.226875 24.90625 11.45375 23.3125 11.6875 C18.37231316 12.41206074 16.18680956 14.17163881 13 18 C12.22876561 21.17047234 12.22876561 21.17047234 12.29296875 24.61328125 C12.26396484 25.86044922 12.23496094 27.10761719 12.20507812 28.39257812 C12.19927734 29.68615234 12.19347656 30.97972656 12.1875 32.3125 C12.16236328 33.62541016 12.13722656 34.93832031 12.11132812 36.29101562 C12.05249165 39.52702167 12.02337559 42.76354354 12 46 C8.04 46 4.08 46 0 46 C0 30.82 0 15.64 0 0 Z " fill="#192848" transform="translate(236,693)"/>
<path d="M0 0 C0.02688151 1.64574566 0.04634123 3.29161413 0.0625 4.9375 C0.07410156 5.85402344 0.08570313 6.77054688 0.09765625 7.71484375 C0 10 0 10 -1 11 C-3.47879116 11.45602533 -5.96429476 11.8351459 -8.45703125 12.20703125 C-11.69078096 13.21540481 -12.89673484 14.34584714 -15 17 C-15.64071929 20.1830881 -15.64071929 20.1830881 -15.609375 23.734375 C-15.64160156 25.02988281 -15.67382812 26.32539062 -15.70703125 27.66015625 C-15.72177469 29.02343302 -15.73609222 30.38671445 -15.75 31.75 C-15.77816814 33.12894376 -15.80809678 34.50785275 -15.83984375 35.88671875 C-15.91056725 39.25787216 -15.96325504 42.6283328 -16 46 C-19.96 46 -23.92 46 -28 46 C-28 31.15 -28 16.3 -28 1 C-24.37 1 -20.74 1 -17 1 C-17 2.98 -17 4.96 -17 7 C-16.34 7 -15.68 7 -15 7 C-14.6596875 6.1028125 -14.6596875 6.1028125 -14.3125 5.1875 C-10.8701556 -0.54974067 -6.01776256 -0.30598793 0 0 Z " fill="#172646" transform="translate(849,693)"/>
<path d="M0 0 C3.55918344 1.02600716 5.41739737 2.8946942 7.96484375 5.56640625 C9.70225244 10.77863233 9.72748468 16.26306592 7.77734375 21.44140625 C5.78005651 24.88500493 4.64263641 26.1123952 0.96484375 27.56640625 C-2.89259123 28.12894885 -4.47506014 27.92283105 -7.78515625 25.81640625 C-11.54066648 22.06089602 -12.37243958 19.03541827 -12.53515625 13.75390625 C-12.43317581 8.54652985 -11.67231962 5.37292194 -7.87890625 1.72265625 C-5.19186257 0.03756106 -3.13733227 -0.2830223 0 0 Z " fill="#F5F6F8" transform="translate(292.03515625,702.43359375)"/>
<path d="M0 0 C3.62072915 0.89811055 5.44311997 2.81448787 8 5.49609375 C9.89137933 11.17023174 9.7835904 16.50360315 7.1875 21.93359375 C5.65120361 24.84725933 4.88690893 25.5714878 2 27.49609375 C-1.375 27.93359375 -1.375 27.93359375 -5 27.49609375 C-7.63016161 25.32335155 -9.47336894 23.54935587 -11 20.49609375 C-11.20353342 18.03915467 -11.32340647 15.64366722 -11.375 13.18359375 C-11.42398437 11.86746094 -11.47296875 10.55132813 -11.5234375 9.1953125 C-10.5888725 2.59058821 -6.69156017 -0.41822251 0 0 Z " fill="#F6F7F9" transform="translate(420,702.50390625)"/>
<path d="M0 0 C2.8100346 1.79363911 4.50940468 3.01880935 6 6 C7.05532813 17.05079318 7.05532813 17.05079318 4.953125 20.93359375 C2.14268872 23.71923206 -0.39579085 24.90704475 -4.25 25.5 C-8.0839731 24.98880359 -8.84162707 24.77104099 -11.4375 22.1875 C-14.51756019 18.14389157 -14.68454981 14.49343594 -14.3984375 9.52734375 C-13.90540422 6.39996599 -13.08477582 4.3936315 -11 2 C-7.31502204 -0.45665197 -4.28028214 -0.70086491 0 0 Z " fill="#F5F6F8" transform="translate(745,703)"/>
<path d="M0 0 C3.5578125 -0.0928125 3.5578125 -0.0928125 7.1875 -0.1875 C8.29387817 -0.22846802 8.29387817 -0.22846802 9.42260742 -0.27026367 C13.83935173 -0.32573392 16.52119467 0.27164994 20 3 C22.51250583 6.76875875 22.53016086 8.53150134 22 13 C20.21847933 15.97361628 18.14692775 18.42653612 15 20 C12.44612508 20.07173806 9.92723239 20.09287732 7.375 20.0625 C4.94125 20.041875 2.5075 20.02125 0 20 C0 13.4 0 6.8 0 0 Z " fill="#F7F9FA" transform="translate(195,688)"/>
<path d="M0 0 C0.33 0 0.66 0 1 0 C1 43.56 1 87.12 1 132 C16.23833725 132.53907978 16.23833725 132.53907978 21 129 C21.46044269 127.10313886 21.46044269 127.10313886 21.39872742 124.88717651 C21.41126556 124.02618347 21.42380371 123.16519043 21.4367218 122.27810669 C21.43528671 121.33152191 21.43385162 120.38493713 21.43237305 119.40966797 C21.4425647 118.41451172 21.45275635 117.41935547 21.46325684 116.39404297 C21.49353432 113.09336831 21.50267534 109.79298313 21.51171875 106.4921875 C21.52855448 104.20817082 21.54670321 101.92416347 21.56611633 99.64016724 C21.61374241 93.61992304 21.64347018 87.59971664 21.66955566 81.5793457 C21.69929769 75.4395399 21.74584974 69.29986454 21.79101562 63.16015625 C21.87719215 51.10683889 21.94447349 39.05349478 22 27 C22.66 27 23.32 27 24 27 C24 61.98 24 96.96 24 133 C16.08 133 8.16 133 0 133 C0 89.11 0 45.22 0 0 Z " fill="#4F78EA" transform="translate(540,439)"/>
<path d="M0 0 C0.57882557 0.16173675 1.15765114 0.32347349 1.75401688 0.49011135 C5.3953255 1.31677025 9.09035344 1.17974707 12.80761719 1.20532227 C13.69577621 1.21522186 14.58393524 1.22512146 15.49900818 1.23532104 C18.43160343 1.26688188 21.36421488 1.2916721 24.296875 1.31640625 C26.33140481 1.33698045 28.36593039 1.35797705 30.40045166 1.37937927 C35.7532 1.43455179 41.1059866 1.48398235 46.45880127 1.53222656 C51.92178754 1.58247676 57.3847183 1.63814446 62.84765625 1.69335938 C73.56505673 1.80088201 84.28250543 1.9023401 95 2 C95 2.66 95 3.32 95 4 C83.0565685 4.09257782 71.113222 4.16370294 59.16950512 4.20724869 C53.62386106 4.22814586 48.07846201 4.25650254 42.53295898 4.30175781 C37.1837402 4.34513932 31.83475745 4.36912105 26.48537636 4.37950897 C24.44195144 4.38691417 22.39853981 4.40137438 20.35521507 4.42292023 C17.49848636 4.45185182 14.64273971 4.45596029 11.78588867 4.45410156 C10.93640656 4.46848267 10.08692444 4.48286377 9.21170044 4.49768066 C3.46172606 4.45705348 3.46172606 4.45705348 0.95088196 1.97161865 C0.48019539 0.99566742 0.48019539 0.99566742 0 0 Z " fill="#5B8EF1" transform="translate(374,471)"/>
<path d="M0 0 C0.41668469 4.25018379 0.44022082 6.35342568 -2 9.9375 C-6.11612499 12.76733593 -8.07775886 12.63512789 -13 12 C-15 10.8125 -15 10.8125 -16 9 C-16.5 6.5625 -16.5 6.5625 -16 4 C-11.80364529 -1.35396981 -6.19337105 -0.39047523 0 0 Z " fill="#EEF0F5" transform="translate(602,719)"/>
<path d="M0 0 C0.3125 2.6875 0.3125 2.6875 0 6 C-3.06949354 9.63492656 -5.14367404 11.84201481 -9.9375 12.25 C-13 12 -13 12 -14.875 10.875 C-16.4682099 8.21965017 -16.20214032 6.03210482 -16 3 C-10.62669111 -0.39366878 -6.13053511 -0.32712342 0 0 Z " fill="#EEF1F5" transform="translate(700,719)"/>
<path d="M0 0 C0.66 0.33 1.32 0.66 2 1 C1.57847656 1.47050781 1.15695312 1.94101562 0.72265625 2.42578125 C0.17480469 3.04839844 -0.37304688 3.67101562 -0.9375 4.3125 C-1.48277344 4.92738281 -2.02804687 5.54226563 -2.58984375 6.17578125 C-4.20081559 8.05241958 -4.20081559 8.05241958 -5 11 C-5.66 11 -6.32 11 -7 11 C-7.06943717 18.6580332 -7.12277913 26.31603387 -7.15543652 33.97430992 C-7.17110864 37.53018671 -7.19237444 41.08584852 -7.22631836 44.64160156 C-7.26507759 48.72723482 -7.27969633 52.81264141 -7.29296875 56.8984375 C-7.30845261 58.17866791 -7.32393646 59.45889832 -7.33988953 60.77792358 C-7.34011612 61.95899689 -7.34034271 63.14007019 -7.34057617 64.35693359 C-7.34723801 65.40062103 -7.35389984 66.44430847 -7.36076355 67.5196228 C-7.24171158 68.33814728 -7.12265961 69.15667175 -7 70 C-6.01 70.66 -5.02 71.32 -4 72 C-6.475 72.99 -6.475 72.99 -9 74 C-9.09299735 66.18484813 -9.16391473 58.36982777 -9.20724869 50.55426025 C-9.22805515 46.92448269 -9.25624354 43.29508585 -9.30175781 39.66552734 C-9.34546659 36.15768737 -9.36918921 32.6502118 -9.37950897 29.14212036 C-9.39041254 27.16355356 -9.42159835 25.18513179 -9.45318604 23.20678711 C-9.45534254 14.49392504 -8.52232166 8.4405406 -2.25 2 C-1.5075 1.34 -0.765 0.68 0 0 Z " fill="#3065F3" transform="translate(345,300)"/>
<path d="M0 0 C3 1.6875 3 1.6875 5 4 C5 5.65 5 7.3 5 9 C-1.27 9 -7.54 9 -14 9 C-13 4 -13 4 -10.9375 1.6875 C-7.14254202 -0.49258224 -4.28029919 -0.85433391 0 0 Z " fill="#F2F5F7" transform="translate(796,702)"/>
<path d="M0 0 C17.01117405 -0.07006064 34.02230312 -0.12297369 51.03358841 -0.15543652 C58.93210928 -0.17090977 66.83054055 -0.19200797 74.72900391 -0.22631836 C81.61277951 -0.25620678 88.49649021 -0.27557167 95.38032889 -0.28226548 C99.02577226 -0.28617872 102.67102997 -0.29538466 106.31641388 -0.31719017 C110.38452921 -0.34132726 114.45232113 -0.34197036 118.52050781 -0.34057617 C119.73107346 -0.351362 120.9416391 -0.36214783 122.18888855 -0.3732605 C123.85051781 -0.36707451 123.85051781 -0.36707451 125.54571533 -0.36076355 C126.50806721 -0.36352893 127.47041908 -0.36629431 128.46193314 -0.36914349 C131.41540664 0.06041789 132.79606929 1.03737671 135 3 C134.10373398 2.83923477 133.20746796 2.67846954 132.28404236 2.51283264 C126.6994749 1.72181673 121.08513267 1.82233106 115.45532227 1.79467773 C113.58110344 1.77982834 113.58110344 1.77982834 111.66902161 1.76467896 C108.26045914 1.73859342 104.85191882 1.71668963 101.44331861 1.69667697 C97.87453593 1.67472441 94.30579456 1.64738132 90.73704529 1.62062073 C83.9870177 1.57081863 77.23696704 1.52583379 70.48689455 1.48259836 C62.79882221 1.43311892 55.11079134 1.37824069 47.42275918 1.32291877 C31.61521116 1.2092905 15.80762492 1.10241018 0 1 C0 0.67 0 0.34 0 0 Z " fill="#4976E4" transform="translate(528,337)"/>
<path d="M0 0 C0.33 0 0.66 0 1 0 C1.00586624 0.70965912 1.01173248 1.41931824 1.01777649 2.15048218 C1.07562766 8.83120653 1.14765992 15.51160876 1.23571491 22.19200706 C1.2804849 25.62667887 1.31972572 29.06123025 1.34643555 32.49609375 C1.3773671 36.4429689 1.43215852 40.38933676 1.48828125 44.3359375 C1.49467117 45.57242035 1.5010611 46.8089032 1.50764465 48.08285522 C1.52743881 49.22388702 1.54723297 50.36491882 1.56762695 51.54052734 C1.57873001 52.548685 1.58983307 53.55684265 1.60127258 54.59555054 C1.73285263 55.38901886 1.86443268 56.18248718 2 57 C2.99 57.66 3.98 58.32 5 59 C3.35 59.66 1.7 60.32 0 61 C0 40.87 0 20.74 0 0 Z " fill="#476BDA" transform="translate(336,313)"/>
<path d="M0 0 C0.33 0 0.66 0 1 0 C1 13.53 1 27.06 1 41 C0.67 41 0.34 41 0 41 C-0.33 30.11 -0.66 19.22 -1 8 C-1.66 8 -2.32 8 -3 8 C-1.125 2.25 -1.125 2.25 0 0 Z " fill="#E2EBF4" transform="translate(553,698)"/>
<path d="M0 0 C0 0.33 0 0.66 0 1 C-0.928125 1.268125 -1.85625 1.53625 -2.8125 1.8125 C-6.51797888 3.17588733 -6.51797888 3.17588733 -9 6 C-9.50768043 9.0968286 -9.50768043 9.0968286 -9.51171875 12.63671875 C-9.54716797 13.93544922 -9.58261719 15.23417969 -9.61914062 16.57226562 C-9.6422405 17.94400517 -9.6650229 19.3157501 -9.6875 20.6875 C-9.72067542 22.07099607 -9.75516531 23.45446129 -9.79101562 24.83789062 C-9.87363241 28.22517883 -9.94274058 31.61220357 -10 35 C-10.33 35 -10.66 35 -11 35 C-11.12403121 30.81919399 -11.21453601 26.63937498 -11.2746582 22.45727539 C-11.29973147 21.03618709 -11.33379999 19.61522687 -11.37719727 18.19458008 C-11.43817858 16.14632538 -11.46627762 14.09978117 -11.48828125 12.05078125 C-11.51446533 10.82012939 -11.54064941 9.58947754 -11.56762695 8.3215332 C-10.43693182 1.70514299 -6.42953887 -0.7476208 0 0 Z " fill="#EBF0F8" transform="translate(371,703)"/>
<path d="M0 0 C0.66 0.33 1.32 0.66 2 1 C2 5.95 2 10.9 2 16 C-5.26 16 -12.52 16 -20 16 C-20 15.67 -20 15.34 -20 15 C-18.80761719 14.95101562 -17.61523438 14.90203125 -16.38671875 14.8515625 C-14.82028932 14.77652396 -13.25388421 14.7009766 -11.6875 14.625 C-10.90181641 14.5940625 -10.11613281 14.563125 -9.30664062 14.53125 C-8.54931641 14.49257813 -7.79199219 14.45390625 -7.01171875 14.4140625 C-5.96697388 14.36693115 -5.96697388 14.36693115 -4.90112305 14.31884766 C-2.67467261 14.07881747 -2.67467261 14.07881747 0 12 C0.36498034 9.10391601 0.36498034 9.10391601 0.1875 5.875 C0.16042969 4.77929688 0.13335938 3.68359375 0.10546875 2.5546875 C0.07066406 1.71164062 0.03585937 0.86859375 0 0 Z " fill="#2F65E7" transform="translate(561,556)"/>
<path d="M0 0 C4.62642926 -0.07426356 9.25251009 -0.12865492 13.87939453 -0.16479492 C15.45269822 -0.17986364 17.02596002 -0.20032245 18.59912109 -0.22631836 C20.86306096 -0.26278738 23.12644457 -0.27974508 25.390625 -0.29296875 C26.09181458 -0.30845261 26.79300415 -0.32393646 27.51544189 -0.33988953 C31.64215024 -0.3413055 34.00231108 0.08632703 37 3 C35.99445068 2.84152588 34.98890137 2.68305176 33.95288086 2.51977539 C30.19232565 2.02528944 26.54319931 1.79743517 22.75390625 1.68359375 C22.09792953 1.66281265 21.44195282 1.64203156 20.76609802 1.62062073 C18.69832454 1.55594062 16.63043899 1.49662534 14.5625 1.4375 C13.14907758 1.39423693 11.73566593 1.35062035 10.32226562 1.30664062 C6.88162529 1.20034484 3.44086308 1.09885528 0 1 C0 0.67 0 0.34 0 0 Z " fill="#547EE6" transform="translate(626,337)"/>
<path d="M0 0 C0.33 0 0.66 0 1 0 C1.06058594 0.88042969 1.12117188 1.76085937 1.18359375 2.66796875 C1.26738281 3.82941406 1.35117187 4.99085938 1.4375 6.1875 C1.55931641 7.91033203 1.55931641 7.91033203 1.68359375 9.66796875 C1.95403812 12.51598171 2.37521747 15.21210482 3 18 C0.17095978 15.41696327 -0.91642083 13.51671615 -1.1328125 9.58984375 C-1.13023437 8.71457031 -1.12765625 7.83929687 -1.125 6.9375 C-1.12757813 6.05964844 -1.13015625 5.18179688 -1.1328125 4.27734375 C-1 2 -1 2 0 0 Z " fill="#3F69E4" transform="translate(495,595)"/>
<path d="M0 0 C0.66 0.33 1.32 0.66 2 1 C1.57847656 1.47050781 1.15695312 1.94101562 0.72265625 2.42578125 C0.17480469 3.04839844 -0.37304688 3.67101562 -0.9375 4.3125 C-1.48277344 4.92738281 -2.02804687 5.54226563 -2.58984375 6.17578125 C-4.20081559 8.05241958 -4.20081559 8.05241958 -5 11 C-5.99 11.33 -6.98 11.66 -8 12 C-6.49087042 7.01987239 -3.44338151 3.75740058 0 0 Z " fill="#4472E8" transform="translate(345,300)"/>
<path d="M0 0 C0.66 0 1.32 0 2 0 C0.50902342 3.7952131 -1.75700849 5.61042731 -5 8 C-5.33 7.34 -5.66 6.68 -6 6 C-4 4 -2 2 0 0 Z " fill="#DFEFFE" transform="translate(362,470)"/>
<path d="M0 0 C0 0.33 0 0.66 0 1 C-1.258125 1.103125 -2.51625 1.20625 -3.8125 1.3125 C-7.13957417 1.69609156 -7.13957417 1.69609156 -9.875 3.5625 C-10.24625 4.036875 -10.6175 4.51125 -11 5 C-11.66 5 -12.32 5 -13 5 C-12 2 -12 2 -9.875 0.25 C-6.19721965 -1.34903493 -3.85974006 -0.83249295 0 0 Z " fill="#CFE2FB" transform="translate(618,428)"/>
<path d="M0 0 C3.3 0 6.6 0 10 0 C10 0.33 10 0.66 10 1 C8.88625 1.226875 7.7725 1.45375 6.625 1.6875 C2.83961627 2.60623658 2.83961627 2.60623658 1.5625 5.625 C1.376875 6.40875 1.19125 7.1925 1 8 C0.67 8 0.34 8 0 8 C0 5.36 0 2.72 0 0 Z " fill="#1B253D" transform="translate(451,682)"/>
<path d="M0 0 C0 0.33 0 0.66 0 1 C-0.886875 1.2475 -1.77375 1.495 -2.6875 1.75 C-6.10427135 3.03934768 -8.2797748 4.59980129 -11 7 C-8.87296567 0.78251503 -6.45381515 -0.28683623 0 0 Z " fill="#D3DAE6" transform="translate(371,703)"/>
<path d="M0 0 C0.33 0 0.66 0 1 0 C1 2.64 1 5.28 1 8 C-0.32 8 -1.64 8 -3 8 C-1.125 2.25 -1.125 2.25 0 0 Z " fill="#D0D9E5" transform="translate(553,698)"/>
<path d="M0 0 C0.33 0 0.66 0 1 0 C1.3125 3.1875 1.3125 3.1875 1 7 C-1.5 9.9375 -1.5 9.9375 -4 12 C-4 11.01 -4 10.02 -4 9 C-3.34 9 -2.68 9 -2 9 C-1.34 6.03 -0.68 3.06 0 0 Z " fill="#D2EBFB" transform="translate(624,435)"/>
</svg>
